<?xml version="1.0" encoding="utf-8"?>
<!-- Generator: Adobe Illustrator 26.5.0, SVG Export Plug-In . SVG Version: 6.00 Build 0)  -->
<svg version="1.1" id="Laag_1" xmlns="http://www.w3.org/2000/svg" xmlns:xlink="http://www.w3.org/1999/xlink" x="0px" y="0px"
	 viewBox="0 0 279.7 60.4" style="enable-background:new 0 0 279.7 60.4;" xml:space="preserve">
<style type="text/css">
	.st0{fill:#FFFFFF;}
</style>
<g>
	<path class="st0" d="M44,39.1c0,12.6-7.9,21.2-20,21.2c-6.7,0-11.8-2.7-14.9-7.6V60H0V1.2h9.1v23.9c3.1-4.9,8.2-7.6,14.7-7.6
		C35.8,17.5,44,26.2,44,39.1z M34.8,38.7c0-7.8-5.3-13.6-12.8-13.6S9.2,30.8,9.2,38.7c0,8.2,5.3,13.8,12.8,13.8S34.8,46.8,34.8,38.7
		z"/>
	<path class="st0" d="M77.2,54.8c-3,3.7-7.8,5.5-13.9,5.5c-9.1,0-14.8-5.6-14.8-13.1c0-7.7,5.8-12.6,15.9-12.7h12.8v-1.3
		c0-5.3-3.4-8.5-10.1-8.5c-4,0-8.2,1.4-12.4,4.3L51,22.7c5.9-3.5,10.1-5.3,18.1-5.3c10.9,0,17,5.5,17,14.8V60h-9L77.2,54.8
		L77.2,54.8z M77.1,45.2v-3.9H65.7c-5.9,0-8.7,1.6-8.7,5.6c0,3.8,3.1,6.3,8.2,6.3C71.6,53.2,76.6,49.8,77.1,45.2z"/>
	<path class="st0" d="M124.1,21.7l-3.3,6.7c-3.7-2.3-8.4-3.7-12.1-3.7c-3.6,0-6.2,1.2-6.2,4.2c0,7.8,22.4,3.6,22.3,18.9
		c0,8.6-7.7,12.5-16.2,12.5c-6.2,0-12.8-2.1-17-5.9l3.2-6.5c3.6,3.2,9.5,5.2,14.1,5.2c3.9,0,6.9-1.3,6.9-4.5c0-8.6-22.2-3.8-22.1-19
		c0-8.6,7.4-12.2,15.5-12.2C114.6,17.4,120.3,19,124.1,21.7z"/>
	<path class="st0" d="M141.9,48.2V60h-9.1V1.2h9.1v35.5l18.6-18.9H171l-15.6,16.3L172.2,60h-10.8L149,40.6L141.9,48.2z"/>
	<path class="st0" d="M213,42.4h-31.8c1.4,6.5,6.4,10.5,13.1,10.5c4.6,0,8.8-1.7,11.9-4.9l4.8,5.1c-4.1,4.5-10.1,7.1-17.4,7.1
		c-13,0-21.5-8.6-21.5-21.3c0-12.8,8.8-21.4,21.3-21.5C208.1,17.5,214.2,27.2,213,42.4z M180,4l9.3-4l8.4,11.7h-8.1L180,4z
		 M205.1,35.7c-0.3-6.8-4.8-10.9-11.7-10.9c-6.7,0-11.3,4.2-12.4,10.9H205.1z"/>
	<path class="st0" d="M244.8,57.3c-3.3,2-6.8,3.1-10.4,3.1c-6.3,0-11.8-3.6-11.8-12.3V26.2h-5.9v-6.8h5.9V7.8h9v11.6H244v6.8h-12.4
		v20.2c0,4.4,1.7,5.7,4.5,5.7c1.9,0,3.9-0.6,6.3-1.8L244.8,57.3z"/>
	<path class="st0" d="M279,21.7l-3.3,6.7c-3.7-2.3-8.4-3.7-12.1-3.7c-3.6,0-6.2,1.2-6.2,4.2c0,7.8,22.4,3.6,22.3,18.9
		c0,8.6-7.7,12.5-16.2,12.5c-6.2,0-12.8-2.1-17-5.9l3.2-6.5c3.6,3.2,9.5,5.2,14.1,5.2c3.9,0,6.9-1.3,6.9-4.5c0-8.6-22.2-3.8-22.1-19
		c0-8.6,7.4-12.2,15.5-12.2C269.5,17.4,275.2,19,279,21.7z"/>
</g>
</svg>
